<svg xmlns="http://www.w3.org/2000/svg" width="41" height="41">
    <defs>
        <linearGradient id="6togerle5b" x1="0%" x2="70.711%" y1="0%" y2="70.711%">
            <stop offset="0%" stop-color="#6F2B72"/>
            <stop offset="0%" stop-color="#FFF"/>
            <stop offset="100%" stop-color="#FFF"/>
        </linearGradient>
        <filter id="hynplwch4a">
            <feFlood flood-color="#DD3D4B" flood-opacity="1" result="floodOut"/>
            <feComposite operator="atop" in="floodOut" in2="SourceGraphic" result="compOut"/>
            <feBlend in="compOut" in2="SourceGraphic"/>
        </filter>
    </defs>
    <g filter="url(#hynplwch4a)">
        <path fill-rule="evenodd" fill="url(#6togerle5b)" d="m40.201 23.207-4.98 1.251c-.293.98-.687 1.929-.711 2.829l2.185 4.416a.721.721 0 0 1-.109.882l-3.414 3.575c-.235.088-.598.128-.877-.035l-4.406-2.652c-.909.497-1.589.897-2.319 1.204l-1.746 4.963a.72.72 0 0 1-.699.545l-4.832.003a.721.721 0 0 1-.696-.545l-1.238-4.963a15.513 15.513 0 0 1-2.832-1.205l-4.401 2.65c-.281.17-.644.123-.877.055L4.83 32.588a.721.721 0 0 1-.107-.879l2.642-4.408a15.06 15.06 0 0 1-1.177-2.838l-4.976-1.247a.723.723 0 0 1-.545-.698v-4.844c0-.332.227-.144.545-.699l4.947-1.239a15.81 15.81 0 0 1 1.203-2.844L4.721 8.477a.725.725 0 0 1 .106-.882l3.415-3.423c.235-.235.597-.284.879.478l4.401 2.061a15.205 15.205 0 0 1 2.827-1.178l1.242-4.99c.081-.32.368-.343.697-.343h4.832c.329 0 .618.023.697.343L25.54 5.51c.71.303 1.435.707 2.343 1.197l4.406-2.147c.277-.666.643-.623.878-.393l3.414 3.423a.724.724 0 0 1 .109.883l-2.2 4.419c.044.906.438 1.855.731 2.826l4.98 1.252c.321.51.545.369.545.699v4.84a.717.717 0 0 1-.545.698zm-.893-4.975-4.839-1.072c-.253-.206-.299-.402-.519-.655a13.93 13.93 0 0 0-1.355-3.272c-.128.667-.125-.503.008-.73l2.565-4.29-2.62-2.627-4.281 2.575c.183.135-.499.142-.728.006-1.044-.603-2.146-.207-3.278-1.391-.141-.069-.439-.266-.502-.518l-1.2-4.819h-3.707l-1.209 4.848a.717.717 0 0 1-.508.52 13.86 13.86 0 0 0-3.268 1.362.7.7 0 0 1-.729-.008L8.863 5.587 6.242 8.219l2.566 4.284c.136.227.136 1.397.005.732a14.484 14.484 0 0 0-1.388 3.294c-.071.252-.269.443-.52.821l-4.8.887v3.716l4.834 1.215a.718.718 0 0 1 .52.51 13.724 13.724 0 0 0 1.36 3.275.724.724 0 0 1-.008.732l-2.566 4.284 2.623 2.633 4.276-2.342c.115-.304.242-.339.37-.339.123 0 .248.032.36.259 1.055.448 2.456 1.78 3.279 1.228.248.07.438.272.504.523l1.2 4.815 3.707-.003 1.198-4.817c.062-.248.388-.448.501-.518 1.136.472 2.237-.788 3.278-1.248.227-.278.909-.273.729.03l4.28 2.41 2.624-2.636-2.571-4.289a.73.73 0 0 1-.008-.734 13.688 13.688 0 0 0 1.355-3.269c.22-.251.266-.447.519-.509l4.839-1.218v-3.713zm-18.597 7.425c-3.06 0-5.55-2.494-5.55-4.747 0-3.69 2.49-6.382 5.55-6.382 3.056 0 5.544 2.692 5.544 6.382 0 2.253-2.488 4.747-5.544 4.747zm0-9.687c-2.269 0-4.111 1.85-4.111 4.94 0 1.453 1.842 3.304 4.111 3.304 2.263 0 4.105-1.851 4.105-3.304 0-3.09-1.842-4.94-4.105-4.94z"/>
    </g>
</svg>
