<svg xmlns="http://www.w3.org/2000/svg" width="41" height="33">
    <defs>
        <linearGradient id="evs6qr3nyb" x1="0%" x2="70.711%" y1="0%" y2="70.711%">
            <stop offset="0%" stop-color="#FFF"/>
            <stop offset="100%" stop-color="#FFF"/>
        </linearGradient>
        <filter id="423bxaqpwa">
            <feFlood flood-color="#DD3D4B" flood-opacity="1" result="floodOut"/>
            <feComposite operator="atop" in="floodOut" in2="SourceGraphic" result="compOut"/>
            <feBlend in="compOut" in2="SourceGraphic"/>
        </filter>
    </defs>
    <g filter="url(#423bxaqpwa)">
        <path fill-rule="evenodd" fill="url(#evs6qr3nyb)" d="M40.81 10.446c0-.032-.27-.047-.32-.079-.08-.068.05-.139-.23-.205L35.906.466C35.793.201 35.53.26 35.238.26H4.839c-.292 0-.555-.059-.669.206L.48 10.162c-.28.066-.15.137-.26.205-.02.032.38.047.38.079 0 .014.3.025.3.042-.7.158-.26.309-.728.434l19.32 21.832c.016.02.045.012.061.031.052.046.095.088.158.122.013.006.015.028.034.034.095.04.195.159.595.159-.208 0-.108-.119-.013-.159.018-.006.021-.028.034-.037.063-.031.105-.073.155-.119.018-.019.048-.011.063-.031l19.32-21.832c.801-.125.641-.276.751-.434 0-.017.16-.028.16-.042zM24.964 1.469l3.554 8.256H11.556l3.556-8.256h9.852zm3.543 9.698L20.34 30.474l-8.773-19.307h16.94zm-18.525 0 7.531 17.171L2.32 11.167h7.662zm20.938 0h6.831L22.559 28.335l8.361-17.168zm7.345-1.442H30.94l-4.399-8.256h8.215l3.509 8.256zM5.318 1.469h8.22L9.982 9.725H1.809l3.509-8.256z"/>
    </g>
</svg>
