<svg xmlns="http://www.w3.org/2000/svg" width="40" height="38">
    <defs>
        <linearGradient id="wiq0gymtjb" x1="0%" x2="70.711%" y1="0%" y2="70.711%">
            <stop offset="0%" stop-color="#FFF"/>
            <stop offset="100%" stop-color="#FFF"/>
        </linearGradient>
        <filter id="jdb0tc18ba">
            <feFlood flood-color="#DD3D4B" flood-opacity="1" result="floodOut"/>
            <feComposite operator="atop" in="floodOut" in2="SourceGraphic" result="compOut"/>
            <feBlend in="compOut" in2="SourceGraphic"/>
        </filter>
    </defs>
    <g filter="url(#jdb0tc18ba)">
        <path fill-rule="evenodd" fill="url(#wiq0gymtjb)" d="M39.699 13.66c-1.049-3.408-2.598-5.95-3.789-8.152-1.99-2.189-5.21-3.962-7.933-5.27-.306.682-.673-.094-.447.138L9.564 16.338l-2.019 1.844a.862.862 0 0 0-.261.344c-.009.021-.018.049-.027.073l-4.703 12.21L.547 36.26c-.115.061-.048.392.164.629.16.761 1.249.269.615.269a.77.77 0 0 0 .231-.034L6.935 35.6l12.65-3.47c.079-.138.158-.174.23-.22.04-.027.079-.058.115-.088l2.065-1.885 17.486-15.962c.251-.23.336-.591.218-.315zM3.779 32.272c.033.022.073.035.106.053.358.225.692.473.968.779.275.302.494.655.685 1.029.021.034.03.076.045.114L2.706 35.64l1.073-3.368zm15.166-1.814L7.233 33.779c-.034-.072-.091-.126-.128-.197-.27-.587-.594-1.139-.235-1.606-1.211-.465-1.732-.835-2.293-1.16-.07-.04-.113-.103-.182-.139l4.372-11.352 2.003-1.189.365 1.157 9.114 9.975-1.304 1.19zm2.538-2.317-2.647-2.896 13.902-12.684c.179-.167.962-.392.962-.622 0-.197-.762-.4-.911-.559-.309.01-.84-.21-1.179-.053L17.708 24.11l-.543-.696-1.345-2.284L28.978 8.447c.182-.168.273.103.273-.623 0-.197-.073-.399.079-.56-.61-.338-1.14-.359-1.48-.051L13.951 19.899l-2.64-2.399L27.756 1.992c3.004 1.188 4.372 2.744 6.1 4.645a21.452 21.452 0 0 1 4.075 6.49L21.483 28.141z"/>
    </g>
</svg>
