<svg xmlns="http://www.w3.org/2000/svg" width="44" height="33">
    <defs>
        <linearGradient id="h2woa5mnpb" x1="0%" x2="70.711%" y1="0%" y2="70.711%">
            <stop offset="0%" stop-color="#FFF"/>
            <stop offset="100%" stop-color="#FFF"/>
        </linearGradient>
        <filter id="1chl5p7iva">
            <feFlood flood-color="#DD3D4B" flood-opacity="1" result="floodOut"/>
            <feComposite operator="atop" in="floodOut" in2="SourceGraphic" result="compOut"/>
            <feBlend in="compOut" in2="SourceGraphic"/>
        </filter>
    </defs>
    <g filter="url(#1chl5p7iva)">
        <path fill-rule="evenodd" fill="url(#h2woa5mnpb)" d="M43.954 16.625v10.341c0 .433-.355.78-.79.78h-2.638c.374 0-.788-.347-.788-.78 0-.431 1.162-.781.788-.781h1.85v-8.869H35.25a.784.784 0 0 1-.788-.779V6.822h-6.338v14.319a.786.786 0 0 1-.788.781.788.788 0 0 1-.79-.781V1.552H1.584v24.633h1.879c.435 0 .791.35.791.781 0 .433-.356.78-.791.78H.797c-.436 0-.197-.347-.197-.78V.774C.6.344.361.3.797.3h26.539c.436 0 .788.044.788.474v4.488h15.04c.435 0 .79.351.79 1.168v10.015c.003.036.037.055.037.092 0 .034-.034.053-.037.088zm-1.578-9.803H36.37v8.933h6.006V6.822zM11.397 20.948c3.357 0 6.089 2.7 6.089 6.018 0 3.321-2.732 6.019-6.089 6.019-3.027 0-6.09-2.698-6.09-6.019 0-3.318 3.063-6.018 6.09-6.018zm0 10.478c2.486 0 4.511-2 4.511-4.46 0-2.459-2.025-4.456-4.511-4.456-2.489 0-4.514 1.997-4.514 4.456 0 2.46 2.025 4.46 4.514 4.46zm7.931-5.241h5.339c.435 0 .787.35.787.781 0 .433-.352.78-.787.78h-5.339a.782.782 0 0 1-.788-.78c0-.431.352-.781.788-.781zM32.6 20.952c3.354 0 6.084 2.698 6.084 6.017 0 3.32-2.73 6.019-6.084 6.019-3.359 0-6.092-2.699-6.092-6.019 0-3.319 2.733-6.017 6.092-6.017zm0 10.477c3.24 0 4.506-2 4.506-4.46 0-2.459-1.266-4.458-4.506-4.458-2.488 0-3.73 1.999-3.73 4.458 0 2.46 1.242 4.46 3.73 4.46z"/>
    </g>
</svg>
